<?xml version="1.0" encoding="UTF-8"?>
<svg version="1.1" xmlns="http://www.w3.org/2000/svg" width="1500" height="1500">
<path d="M0 0 C3.97533926 0.01709036 7.9500752 0.00688758 11.92539406 -0.01032257 C28.85770494 -0.07225444 45.66479974 0.3803222 62.54394531 1.77392578 C63.28974854 1.83537403 64.03555176 1.89682228 64.80395508 1.9601326 C110.8439239 5.8412025 156.57094785 15.20489483 200.53173828 29.34960938 C202.69020978 30.04371758 204.85070856 30.731553 207.01318359 31.41308594 C260.04419663 48.14258803 311.37964244 72.74099554 357.77050781 103.39111328 C358.95396845 104.16345271 360.13756617 104.93558211 361.32128906 105.70751953 C371.36246769 112.29220525 381.08979412 119.29005393 390.77050781 126.39111328 C391.33366699 126.80216309 391.89682617 127.21321289 392.47705078 127.63671875 C400.86229527 133.76675001 408.90320049 140.2996141 416.9296875 146.88671875 C418.53809494 148.20117586 420.15732477 149.5023679 421.77832031 150.80126953 C428.45222855 156.16179933 434.72105192 161.87879784 440.96313477 167.72729492 C442.25075013 168.91263853 443.55307014 170.08209237 444.86499023 171.24047852 C452.17559786 177.70054034 459.07219015 184.54041778 465.95776367 191.44799805 C467.96127768 193.45689193 469.97010933 195.46035718 471.97949219 197.46337891 C478.12280304 203.6035007 484.16918094 209.7454536 489.77050781 216.39111328 C491.24585317 218.01958345 492.72444211 219.64512845 494.20800781 221.26611328 C497.79327799 225.24305163 501.18644536 229.3208521 504.49707031 233.52783203 C506.2015444 235.67453221 507.92307792 237.79808849 509.66894531 239.91064453 C518.09750303 250.1260929 526.05546795 260.62753456 533.77050781 271.39111328 C534.75204834 272.75961426 534.75204834 272.75961426 535.75341797 274.15576172 C544.55891617 286.48894812 552.83004372 299.00211669 560.43847656 312.10791016 C561.68804631 314.24976797 562.95832821 316.3772754 564.23925781 318.50048828 C587.62733078 357.40163883 606.07237393 398.51455701 620.77050781 441.39111328 C621.33764112 443.01371021 621.90528999 444.63612711 622.47363281 446.25830078 C644.65035104 510.28646675 654.47260483 578.71889222 654.21733856 646.30310822 C654.20784003 648.93764969 654.20301247 651.57217128 654.1987915 654.20672607 C654.14449366 679.32687726 653.67737978 704.22970777 650.09338379 729.13580322 C649.75828315 731.47650334 649.43854617 733.8189545 649.12109375 736.16210938 C640.83734104 796.68013784 624.40323897 855.49915745 599.77050781 911.39111328 C599.12057861 912.87925537 599.12057861 912.87925537 598.45751953 914.39746094 C593.57151435 925.56909802 588.41525821 936.58231466 582.77050781 947.39111328 C582.32787598 948.24060547 581.88524414 949.09009766 581.42919922 949.96533203 C569.42771128 972.86221719 556.22167847 995.11065686 541.296875 1016.22949219 C539.73854848 1018.43637367 538.1948388 1020.65293442 536.65332031 1022.87158203 C528.63342302 1034.37657223 520.2423263 1045.50854276 511.30566406 1056.32080078 C509.36460376 1058.67160725 507.43683899 1061.03120594 505.51660156 1063.39892578 C498.65139575 1071.83937698 491.60915778 1080.00971726 484.14257812 1087.921875 C482.04359327 1090.16950683 480.00885228 1092.47457484 477.95800781 1094.76611328 C472.17461754 1101.08374635 466.13102799 1107.14116608 460.08300781 1113.20361328 C459.5854599 1113.70374939 459.08791199 1114.2038855 458.57528687 1114.71917725 C452.82006171 1120.49798988 446.97287684 1126.09215039 440.77050781 1131.39111328 C439.16282409 1132.84556845 437.55811067 1134.30332223 435.95800781 1135.76611328 C431.64411352 1139.65913984 427.20268532 1143.35562752 422.68457031 1147.00830078 C420.08546605 1149.1335737 417.52782899 1151.29651035 414.97924805 1153.48144531 C408.44496355 1159.07672319 401.70990735 1164.30222029 394.77050781 1169.39111328 C393.73539063 1170.17357422 392.70027344 1170.95603516 391.63378906 1171.76220703 C366.48549165 1190.68960982 339.47952341 1207.31998785 311.81640625 1222.28222656 C309.82927021 1223.35926378 307.85052339 1224.45057351 305.87207031 1225.54345703 C264.06216256 1248.40355048 218.68101605 1264.94257376 172.77050781 1277.39111328 C171.63049316 1277.70387207 170.49047852 1278.01663086 169.31591797 1278.33886719 C116.77373215 1292.61456613 62.2895487 1299.04102075 7.92616653 1298.83774185 C5.28906146 1298.82845858 2.65198045 1298.82407482 0.01486206 1298.82040405 C-25.18281339 1298.77156143 -50.13228428 1298.22120078 -75.12054443 1294.68536377 C-77.24327638 1294.38919004 -79.36768412 1294.11174515 -81.49365234 1293.83984375 C-158.33501817 1283.96110935 -233.01072282 1259.28046179 -415.22949219 1145.39111328 C-415.8330957 1144.88660645 -416.43669922 1144.38209961 -417.05859375 1143.86230469 C-432.04392303 1131.32499201 -445.96717647 1117.74408662 -459.79199219 1103.95361328 C-460.40471985 1103.34356445 -461.01744751 1102.73351563 -461.64874268 1102.10498047 C-468.06518868 1095.70982013 -474.36691092 1089.30495935 -480.22949219 1082.39111328 C-482.38900671 1080.01322089 -484.55319793 1077.64005617 -486.72558594 1075.27392578 C-488.22949219 1073.39111328 -488.22949219 1073.39111328 -488.22949219 1071.39111328 C-488.88949219 1071.39111328 -489.54949219 1071.39111328 -490.22949219 1071.39111328 C-491.71777344 1069.76611328 -491.71777344 1069.76611328 -493.54199219 1067.39111328 C-494.60740234 1066.02212891 -494.60740234 1066.02212891 -495.69433594 1064.62548828 C-496.2935083 1063.85495117 -496.2935083 1063.85495117 -496.90478516 1063.06884766 C-498.34510223 1061.24469378 -499.8163406 1059.44920045 -501.29589844 1057.65673828 C-507.82041777 1049.74852549 -514.00113681 1041.71337417 -519.87255859 1033.31152344 C-521.39240796 1031.16054554 -522.93914285 1029.03067458 -524.49121094 1026.90283203 C-525.05904297 1026.12343262 -525.626875 1025.3440332 -526.21191406 1024.54101562 C-527.30609726 1023.04105715 -528.40227841 1021.54255292 -529.50097656 1020.04589844 C-533.66738508 1014.31643163 -537.46813728 1008.39228939 -541.22949219 1002.39111328 C-542.41024088 1000.52898135 -543.5912319 998.66700305 -544.77246094 996.80517578 C-556.13701552 978.79237993 -567.04004189 960.61987896 -576.22949219 941.39111328 C-576.59139648 940.63588379 -576.95330078 939.8806543 -577.32617188 939.10253906 C-579.62994574 934.28582517 -581.91066305 929.4586268 -584.17871094 924.625 C-585.13735806 922.58698393 -586.10366436 920.55285165 -587.07324219 918.52001953 C-588.82887517 914.82691485 -590.54285305 911.11621171 -592.22949219 907.39111328 C-592.5158252 906.76027832 -592.8021582 906.12944336 -593.09716797 905.47949219 C-614.68695019 857.36342106 -628.97475969 805.39526068 -637.22949219 753.39111328 C-637.42236816 752.19083496 -637.61524414 750.99055664 -637.81396484 749.75390625 C-642.92984335 717.28792576 -644.7863567 684.72326871 -644.61641693 651.88916397 C-644.60423535 649.4011562 -644.59685504 646.91316914 -644.59039307 644.42514038 C-644.51938373 620.65092075 -644.25929449 597.00359313 -641.22949219 573.39111328 C-641.12767639 572.58055481 -641.0258606 571.76999634 -640.92095947 570.93487549 C-638.09345879 548.51989956 -634.4738162 526.37681346 -629.22949219 504.39111328 C-628.94380371 503.16263672 -628.65811523 501.93416016 -628.36376953 500.66845703 C-621.17250664 469.86762924 -611.67942255 439.87468396 -600.22949219 410.39111328 C-599.86726563 409.45187012 -599.50503906 408.51262695 -599.13183594 407.54492188 C-595.16971592 397.3051809 -590.942747 387.26126184 -586.17431641 377.37060547 C-585.13371928 375.19046038 -584.11984466 372.99899127 -583.10839844 370.80517578 C-578.55528426 360.97495048 -573.63254501 351.48401824 -568.21240234 342.10595703 C-566.84586152 339.7218083 -565.5355021 337.30885064 -564.22949219 334.89111328 C-563.22987285 333.05757237 -562.22984261 331.22425543 -561.22949219 329.39111328 C-560.30136719 327.67988281 -560.30136719 327.67988281 -559.35449219 325.93408203 C-543.48108118 296.98889084 -524.14787069 269.9077824 -503.59570312 244.12207031 C-502.10511934 242.23353582 -500.63858298 240.32783345 -499.17480469 238.41845703 C-498.67166748 237.76594971 -498.16853027 237.11344238 -497.65014648 236.44116211 C-496.68072978 235.18291507 -495.71584146 233.92116265 -494.75610352 232.65551758 C-493.62678934 231.19705656 -492.43359458 229.78846667 -491.22949219 228.39111328 C-490.56949219 228.39111328 -489.90949219 228.39111328 -489.22949219 228.39111328 C-489.00648438 227.84970703 -488.78347656 227.30830078 -488.55371094 226.75048828 C-486.80890256 223.64174414 -484.47726163 221.2114924 -482.04199219 218.64111328 C-481.1099611 217.64729734 -480.17899013 216.65248625 -479.24902344 215.65673828 C-478.78744843 215.16296188 -478.32587341 214.66918549 -477.85031128 214.16044617 C-476.21026488 212.3701242 -474.62673649 210.54042728 -473.04443359 208.69897461 C-469.25338288 204.35865772 -465.25051276 200.26759706 -461.17089844 196.19970703 C-460.42291489 195.45076675 -459.67493134 194.70182648 -458.90428162 193.93019104 C-457.33316755 192.35840103 -455.76080826 190.78785479 -454.18725586 189.21850586 C-451.79849373 186.83510025 -449.41511773 184.4464026 -447.03222656 182.05712891 C-445.49543768 180.52100091 -443.95833859 178.9851832 -442.42089844 177.44970703 C-441.71856583 176.74535019 -441.01623322 176.04099335 -440.2926178 175.31529236 C-435.76428384 170.80802621 -431.07238291 166.55661137 -426.22949219 162.39111328 C-425.01132812 161.29476562 -425.01132812 161.29476562 -423.76855469 160.17626953 C-423.13691406 159.60779297 -422.50527344 159.03931641 -421.85449219 158.45361328 C-421.20738281 157.86708984 -420.56027344 157.28056641 -419.89355469 156.67626953 C-418.22949219 155.39111328 -418.22949219 155.39111328 -416.22949219 155.39111328 C-416.22949219 154.73111328 -416.22949219 154.07111328 -416.22949219 153.39111328 C-414.56933594 151.86767578 -414.56933594 151.86767578 -412.16699219 150.01611328 C-407.50372527 146.38537824 -407.50372527 146.38537824 -402.89355469 142.68798828 C-365.01650469 111.88929065 -323.09055833 85.6054846 -279.17236328 64.3359375 C-277.1603924 63.35750984 -275.15812542 62.36071329 -273.15527344 61.36376953 C-196.86667476 23.85972035 -108.77062695 1.88512241 0 0 Z M517.23925781 399.92626953 C515.82604248 400.75759399 515.82604248 400.75759399 514.38427734 401.60571289 C513.3567334 402.21552002 512.32918945 402.82532715 511.27050781 403.45361328 C509.0703478 404.74849739 506.86981444 406.0427473 504.66894531 407.33642578 C504.10005585 407.67147629 503.53116638 408.00652679 502.94503784 408.35173035 C496.94979118 411.88100544 490.92447875 415.35737371 484.89550781 418.82861328 C483.81720703 419.45002197 482.73890625 420.07143066 481.62792969 420.71166992 C479.43631427 421.97464854 477.24458245 423.2374252 475.05273438 424.5 C469.62390839 427.62791476 464.197315 430.75969776 458.77050781 433.89111328 C456.60385199 435.14113207 454.43718532 436.39113207 452.27050781 437.64111328 C451.19800781 438.25986328 450.12550781 438.87861328 449.02050781 439.51611328 C413.27050781 460.14111328 413.27050781 460.14111328 410.02001953 462.01635742 C407.85493711 463.26546846 405.68989799 464.51465457 403.52490234 465.76391602 C398.08435075 468.90313638 392.64303566 472.04101891 387.20019531 475.17626953 C376.74844502 481.19858703 366.30757666 487.23791586 355.89550781 493.32861328 C347.25768781 498.37949347 338.58731141 503.37135682 329.89550781 508.32861328 C311.0728205 519.06425058 292.30217689 529.88811511 273.59570312 540.82519531 C268.66800525 543.70583178 263.73270282 546.57028044 258.77050781 549.39111328 C259.38784946 552.7340905 260.19139406 555.90297286 261.25878906 559.12939453 C261.55100342 560.02311768 261.84321777 560.91684082 262.14428711 561.83764648 C262.45406494 562.78341553 262.76384277 563.72918457 263.08300781 564.70361328 C271.91498843 592.23253531 276.00180392 619.70550223 276.02050781 648.57861328 C276.02151993 649.98297638 276.02151993 649.98297638 276.02255249 651.41571045 C276.00594352 665.94126319 275.42035464 680.07578989 272.77050781 694.39111328 C272.59358398 695.3762793 272.41666016 696.36144531 272.234375 697.37646484 C260.39867413 761.95155819 225.05177301 824.88425974 171.48583984 864.12890625 C169.70877296 865.43654015 167.95588408 866.77249423 166.20410156 868.11376953 C120.17799047 903.03267175 62.69184987 920.94200183 5.14550781 920.70361328 C4.22674866 920.70179047 3.3079895 920.69996765 2.36138916 920.6980896 C-12.02824324 920.65016475 -26.04777067 919.99571 -40.22949219 917.39111328 C-41.65938477 917.14167969 -41.65938477 917.14167969 -43.11816406 916.88720703 C-93.64238293 907.91841078 -141.08906176 885.04867135 -178.56542969 849.86767578 C-180.74110156 847.84513038 -182.95113692 845.91943064 -185.22949219 844.01611328 C-193.50785983 836.82882757 -200.91812915 828.33221092 -207.22949219 819.39111328 C-211.01467951 820.80716388 -214.4269854 822.54532393 -217.92871094 824.55908203 C-219.04213867 825.1973291 -220.15556641 825.83557617 -221.30273438 826.49316406 C-222.50754132 827.18821961 -223.71229247 827.88337188 -224.91699219 828.57861328 C-226.17237891 829.30006078 -227.42791511 830.02124822 -228.68359375 830.7421875 C-231.91069511 832.59614268 -235.13545632 834.45412793 -238.35955811 836.31329346 C-240.13870144 837.33878199 -241.91853268 838.363062 -243.69873047 839.38671875 C-255.19041718 845.99473474 -266.6617096 852.63627325 -278.10449219 859.32861328 C-287.37518889 864.75060345 -296.68885814 870.09435281 -306.0199585 875.41134644 C-314.11657062 880.02595357 -322.1873802 884.68196214 -330.22949219 889.39111328 C-338.86446776 894.44742251 -347.53555538 899.4371845 -356.22949219 904.39111328 C-364.96351707 909.36838409 -373.67681822 914.37845394 -382.35449219 919.45361328 C-400.36751658 929.98857568 -418.45715949 940.38841675 -436.584198 950.72564697 C-445.03204167 955.54462174 -453.44598982 960.41509457 -461.81152344 965.37548828 C-465.26685492 967.41314662 -468.74230649 969.40864151 -472.22949219 971.39111328 C-471.62906434 974.35951151 -470.74551597 976.40143125 -468.99902344 978.86767578 C-468.53294678 979.52928711 -468.06687012 980.19089844 -467.58666992 980.87255859 C-467.07692627 981.57993164 -466.56718262 982.28730469 -466.04199219 983.01611328 C-465.510979 983.75958008 -464.97996582 984.50304688 -464.43286133 985.26904297 C-455.69652302 997.40164708 -446.45950076 1009.13295588 -436.70996094 1020.46533203 C-433.62027476 1024.10970202 -430.69003298 1027.86579071 -427.78808594 1031.66064453 C-427.01658203 1032.51722656 -427.01658203 1032.51722656 -426.22949219 1033.39111328 C-425.56949219 1033.39111328 -424.90949219 1033.39111328 -424.22949219 1033.39111328 C-423.95886963 1033.9831958 -423.68824707 1034.57527832 -423.40942383 1035.18530273 C-422.24141817 1037.36881839 -421.04217981 1038.88821732 -419.35058594 1040.68408203 C-418.76736572 1041.30613525 -418.18414551 1041.92818848 -417.58325195 1042.5690918 C-416.95088623 1043.23223389 -416.31852051 1043.89537598 -415.66699219 1044.57861328 C-415.00948975 1045.2733374 -414.3519873 1045.96806152 -413.67456055 1046.68383789 C-408.61203385 1052.00451716 -403.47300867 1057.24842141 -398.29199219 1062.45361328 C-397.60741943 1063.14285889 -396.92284668 1063.83210449 -396.2175293 1064.54223633 C-392.28050751 1068.46685804 -388.23551259 1072.20777142 -384.02661133 1075.83911133 C-381.78581645 1077.77427409 -379.60212853 1079.76849301 -377.41699219 1081.76611328 C-372.16784044 1086.49673181 -366.73526756 1090.96378875 -361.22949219 1095.39111328 C-360.07313627 1096.32848263 -358.91689139 1097.26598898 -357.76074219 1098.20361328 C-353.93896504 1101.294135 -350.09196963 1104.3516429 -346.22949219 1107.39111328 C-345.6363623 1107.85855957 -345.04323242 1108.32600586 -344.43212891 1108.80761719 C-315.04125414 1131.80599697 -282.54858221 1150.74951761 -249.22949219 1167.39111328 C-248.26124512 1167.87918457 -247.29299805 1168.36725586 -246.29541016 1168.87011719 C-177.80630246 1203.25105627 -102.32914695 1220.33795264 -26.22949219 1225.39111328 C-24.63983643 1225.49915283 -24.63983643 1225.49915283 -23.01806641 1225.609375 C-17.42343595 1225.97817648 -11.8343306 1226.24518562 -6.22949219 1226.39111328 C-5.44944824 1226.41302734 -4.6694043 1226.43494141 -3.86572266 1226.45751953 C56.6874447 1227.90414109 117.99981394 1218.18951959 175.77050781 1200.39111328 C176.95402832 1200.02679199 178.13754883 1199.6624707 179.35693359 1199.28710938 C234.84491147 1181.97831756 287.16094284 1155.6448292 334.77050781 1122.39111328 C335.44307617 1121.92463379 336.11564453 1121.4581543 336.80859375 1120.97753906 C351.16655484 1111.00822331 364.92960506 1100.20118402 378.15673828 1088.77832031 C379.89574088 1087.2834621 381.64654253 1085.80327247 383.39941406 1084.32470703 C389.14929161 1079.46123729 394.75039439 1074.581167 399.99707031 1069.16845703 C401.76918504 1067.39243897 403.61026928 1065.76676525 405.52050781 1064.14111328 C413.19613603 1057.52523649 420.3733071 1050.21966667 426.93847656 1042.50439453 C428.81960453 1040.33447933 430.76009384 1038.2260672 432.71386719 1036.12158203 C437.51716691 1030.94476514 442.10702977 1025.65779876 446.53613281 1020.15283203 C448.84422538 1017.29999733 451.21050366 1014.50301706 453.58300781 1011.70361328 C488.48543415 969.80994592 517.52555145 921.02647849 537.77050781 870.39111328 C538.16544434 869.40788086 538.56038086 868.42464844 538.96728516 867.41162109 C552.22269874 834.20332181 562.50784361 800.39638852 569.77050781 765.39111328 C569.96241699 764.46878906 570.15432617 763.54646484 570.35205078 762.59619141 C571.59489954 756.54503638 572.72227418 750.47889 573.77050781 744.39111328 C574.0216333 742.94091797 574.0216333 742.94091797 574.27783203 741.46142578 C577.70817015 721.2079365 579.37288136 700.86736841 580.77050781 680.39111328 C580.88072266 678.78623047 580.88072266 678.78623047 580.99316406 677.14892578 C581.36075298 671.56470262 581.6248528 665.98547973 581.77050781 660.39111328 C581.79242187 659.61106934 581.81433594 658.83102539 581.83691406 658.02734375 C583.02178215 608.43074024 576.54251538 558.47908243 564.77050781 510.39111328 C564.50544434 509.30088867 564.24038086 508.21066406 563.96728516 507.08740234 C554.67689293 469.42490946 541.25228234 432.03297079 523.77050781 397.39111328 C521.01310026 397.39111328 519.61245975 398.52138746 517.23925781 399.92626953 Z M-112.31396484 493.95605469 C-113.69298998 494.98918109 -115.08497834 496.00508527 -116.48486328 497.00976562 C-117.21914551 497.54166504 -117.95342773 498.07356445 -118.70996094 498.62158203 C-119.38309326 499.10393311 -120.05622559 499.58628418 -120.74975586 500.08325195 C-121.48222534 500.73064331 -121.48222534 500.73064331 -122.22949219 501.39111328 C-122.22949219 502.05111328 -122.22949219 502.71111328 -122.22949219 503.39111328 C-122.82173584 503.65956055 -123.41397949 503.92800781 -124.02416992 504.20458984 C-127.70496748 506.18495917 -130.36829121 509.19197599 -133.29199219 512.14111328 C-133.95739014 512.81142578 -134.62278809 513.48173828 -135.30834961 514.17236328 C-141.50927327 520.51867351 -147.04084685 527.20081814 -152.22949219 534.39111328 C-152.64505371 534.9623291 -153.06061523 535.53354492 -153.48876953 536.12207031 C-172.24556604 562.20608323 -183.33733544 591.77795658 -188.22949219 623.39111328 C-188.33406738 624.06376221 -188.43864258 624.73641113 -188.54638672 625.42944336 C-189.57030135 633.13994181 -189.4723152 640.9390635 -189.47949219 648.70361328 C-189.48049927 649.4595578 -189.48150635 650.21550232 -189.48254395 650.99435425 C-189.47171155 663.03504485 -188.75199416 674.58623481 -186.22949219 686.39111328 C-186.08495605 687.10928223 -185.94041992 687.82745117 -185.79150391 688.56738281 C-179.5874798 719.12031214 -166.22334894 747.31747073 -146.57714844 771.50048828 C-145.17995158 773.2208305 -143.8181288 774.9725322 -142.53808594 776.78173828 C-142.10625 777.31283203 -141.67441406 777.84392578 -141.22949219 778.39111328 C-140.56949219 778.39111328 -139.90949219 778.39111328 -139.22949219 778.39111328 C-139.00132812 778.94412109 -138.77316406 779.49712891 -138.53808594 780.06689453 C-122.6078065 808.36097293 -77.83557242 827.72639892 -48.44677734 836.50244141 C-0.30958492 849.79879749 50.92583907 844.76415601 95.046875 821.30371094 C96.59349348 820.4848356 98.15387937 819.69208866 99.71582031 818.90283203 C110.71228104 813.21224375 120.45294549 805.53110583 130.14550781 797.89111328 C130.80647461 797.37468262 131.46744141 796.85825195 132.1484375 796.32617188 C133.72850764 795.06219995 135.25537493 793.73223931 136.77050781 792.39111328 C136.77050781 791.73111328 136.77050781 791.07111328 136.77050781 790.39111328 C137.30417969 790.19130859 137.83785156 789.99150391 138.38769531 789.78564453 C141.82979205 787.77117152 144.22339275 785.01058829 146.89550781 782.07861328 C147.75656128 781.13864502 147.75656128 781.13864502 148.63500977 780.1796875 C158.37270715 769.42017476 166.40762336 757.87236499 173.77050781 745.39111328 C174.3000708 744.50697754 174.3000708 744.50697754 174.84033203 743.60498047 C199.75281611 701.55547407 204.87289419 648.85546116 193.35473633 601.91870117 C186.87126106 576.81405966 176.19007366 554.22955512 160.77050781 533.39111328 C160.30128906 532.75044922 159.83207031 532.10978516 159.34863281 531.44970703 C157.97968396 529.58808702 156.598204 527.73690715 155.20800781 525.89111328 C154.790271 525.33230469 154.37253418 524.77349609 153.94213867 524.19775391 C152.93398304 522.88955943 151.85808765 521.63406166 150.77050781 520.39111328 C150.11050781 520.39111328 149.45050781 520.39111328 148.77050781 520.39111328 C148.54234375 519.83810547 148.31417969 519.28509766 148.07910156 518.71533203 C143.07538757 509.82813853 132.66649211 502.53610525 124.77050781 496.39111328 C123.36865234 495.28123047 123.36865234 495.28123047 121.93847656 494.14892578 C53.97008553 441.55758707 -44.12485556 442.64740197 -112.31396484 493.95605469 Z " fill="#353535" transform="translate(745.2294921875,100.60888671875)"/>
<path d="M0 0 C2.12481748 0.00504402 4.24961629 0.00649884 6.37443924 0.00745392 C26.10746955 0.02634906 45.68684665 0.43824283 65.29262161 2.88629913 C67.84870371 3.19733345 70.39722257 3.47883006 72.95912552 3.72907257 C83.83003248 4.80978386 94.48461255 6.57232406 105.20424271 8.66657257 C107.89830167 9.19244507 110.59434994 9.70693252 113.29091263 10.21979523 C127.10896058 12.86955456 140.91602801 15.6919832 154.3983345 19.75495148 C155.09990677 19.96611603 155.80147903 20.17728058 156.52431107 20.39484406 C157.95397424 20.82672816 159.38287553 21.26114392 160.81093216 21.69831085 C162.68547272 22.27147638 164.56325987 22.83399471 166.44130325 23.39557648 C200.82918935 33.86305735 233.72232973 47.22111388 265.8358345 63.31745148 C266.72947708 63.7629837 267.62311966 64.20851593 268.54384232 64.66754913 C305.91511024 83.4126205 340.9861799 107.53224006 372.734272 134.68854523 C375.6603205 137.18472197 378.64940203 139.59671782 381.6483345 142.00495148 C385.57700872 145.19913443 389.20672723 148.52799416 392.69130325 152.20026398 C394.54486574 154.0301927 396.43871055 155.71269093 398.4139595 157.40729523 C403.64610712 161.95120908 408.51070635 166.84639129 413.3983345 171.75495148 C414.75861771 173.1094339 414.75861771 173.1094339 416.14638138 174.4912796 C420.70730758 179.05882064 425.13728361 183.67769012 429.34047318 188.57697296 C431.4063342 190.98146656 433.55990183 193.30158496 435.7108345 195.62995148 C440.63090756 201.03238463 445.27938464 206.60659904 449.8358345 212.31745148 C450.44781693 213.08001251 450.44781693 213.08001251 451.07216263 213.85797882 C458.74823468 223.4354901 466.0772074 233.26416984 473.28798294 243.19586945 C474.30046653 244.5836427 475.32417848 245.96331063 476.36024857 247.33356476 C479.8358345 251.99251077 479.8358345 251.99251077 479.8358345 255.31745148 C479.16753616 255.68918488 478.49923782 256.06091827 477.81068802 256.44391632 C461.02894916 265.78328638 461.02894916 265.78328638 444.421772 275.4275589 C438.10911973 279.16969557 431.75679684 282.84126826 425.3983345 286.50495148 C424.29111038 287.14295685 423.18388626 287.78096222 422.04310989 288.43830109 C419.77246383 289.74634624 417.50171093 291.05420596 415.23085403 292.36188507 C409.76413471 295.51077201 404.30008563 298.66428411 398.8358345 301.81745148 C396.66918139 303.06747498 394.50251471 304.31747495 392.3358345 305.56745148 C391.2633345 306.18620148 390.1908345 306.80495148 389.0858345 307.44245148 C379.3358345 313.06745148 379.3358345 313.06745148 376.08534622 314.94269562 C373.9202638 316.19180666 371.75522468 317.44099277 369.59022903 318.69025421 C364.14967744 321.82947457 358.70836235 324.9673571 353.265522 328.10260773 C342.81377251 334.12492476 332.37283902 340.16414485 321.9608345 346.25495148 C312.69083673 351.67666325 303.37751698 357.01950063 294.04738235 362.33667755 C284.93042478 367.53367385 275.84955189 372.78962304 266.79091263 378.08771515 C256.13493122 384.31819862 245.4497409 390.49741031 234.74550247 396.64459991 C232.07622385 398.17924475 229.41093138 399.72060477 226.74599075 401.26276398 C225.29708513 402.09403917 223.84789269 402.92481475 222.3983345 403.75495148 C221.4412056 404.31243073 221.4412056 404.31243073 220.46474075 404.88117218 C217.68315146 406.46250259 216.09582819 407.31745148 212.8358345 407.31745148 C211.06630325 405.43854523 211.06630325 405.43854523 209.0233345 402.75495148 C200.88397111 392.47435033 191.97897093 382.65271181 181.8358345 374.31745148 C180.93220169 373.5259671 180.02856888 372.73448273 179.09755325 371.91901398 C124.38723887 324.10760291 51.90501639 302.13440342 -20.08970261 306.88800812 C-78.73490704 311.32275803 -135.57358165 335.37644122 -178.93369675 375.27057648 C-180.99712824 377.16416335 -183.09991131 378.99571311 -185.2266655 380.81745148 C-235.93144146 425.08190307 -264.65677681 494.120181 -269.1641655 560.31745148 C-271.05265305 598.91677079 -265.5618685 637.21204562 -251.80332565 673.40753937 C-251.1641655 675.31745148 -251.1641655 675.31745148 -251.1641655 677.31745148 C-251.73522018 677.63794464 -252.30627487 677.95843781 -252.89463425 678.28864288 C-264.97790831 685.07708004 -277.00977198 691.94434055 -288.9712944 698.94513702 C-299.58063338 705.15341951 -310.23045053 711.29073922 -320.88193893 717.4263382 C-326.31076492 720.55425296 -331.73735831 723.68603596 -337.1641655 726.81745148 C-339.33082132 728.06747027 -341.49748799 729.31747026 -343.6641655 730.56745148 C-345.2729155 731.49557648 -345.2729155 731.49557648 -346.9141655 732.44245148 C-460.6641655 798.06745148 -460.6641655 798.06745148 -463.91807175 799.94464874 C-466.07178269 801.18721167 -468.22542916 802.42988636 -470.37900925 803.67267609 C-475.40100812 806.57059771 -480.42359357 809.46748497 -485.44858932 812.3602066 C-487.21462071 813.37692346 -488.98043981 814.39400806 -490.74619675 815.41120148 C-492.95150704 816.68146021 -495.15720766 817.95104166 -497.36338425 819.21979523 C-503.02830559 822.48383441 -508.64740083 825.80174039 -514.203228 829.24884796 C-516.1641655 830.31745148 -516.1641655 830.31745148 -518.1641655 830.31745148 C-527.73477131 809.26406196 -536.60970928 788.19133512 -544.1641655 766.31745148 C-544.38630722 765.67704926 -544.60844894 765.03664703 -544.83732224 764.37683868 C-550.21717122 748.86246412 -555.50203499 733.34068095 -559.1641655 717.31745148 C-559.42262253 716.19725616 -559.68107956 715.07706085 -559.94736862 713.92292023 C-565.04441532 691.56093403 -569.14018971 669.05422207 -572.1641655 646.31745148 C-572.25717941 645.62119659 -572.35019333 644.92494171 -572.44602585 644.2075882 C-575.25770049 622.7413104 -575.44123586 601.19603488 -575.47334671 579.57914352 C-575.47553231 578.17201459 -575.47853767 576.76488665 -575.48242569 575.35776138 C-575.55369145 549.44823368 -574.84136863 523.53183692 -570.9141655 497.87995148 C-570.69722365 496.41926756 -570.48034734 494.95857391 -570.26353073 493.4978714 C-565.87379627 464.38678139 -559.6388792 435.73385168 -550.87998581 407.6162796 C-550.17334074 405.34691741 -549.47636243 403.07477578 -548.781353 400.80182648 C-546.75897342 394.22964745 -544.63499892 387.73641382 -542.1641655 381.31745148 C-541.79299606 380.34904327 -541.42182663 379.38063507 -541.03940964 378.38288116 C-535.4985509 363.98718608 -529.82579672 349.70002868 -523.28672409 335.72272491 C-522.1241625 333.23173824 -520.98192509 330.73199545 -519.83994675 328.23151398 C-514.12360833 315.84068766 -507.67976459 303.96092227 -500.81992722 292.1685257 C-499.21439076 289.40393491 -497.62765201 286.62924837 -496.04307175 283.85260773 C-480.22126841 256.35670491 -461.61269322 230.54398417 -441.1641655 206.31745148 C-440.16923896 205.12615786 -439.17444191 203.93475607 -438.1797905 202.74323273 C-426.70069607 189.08032003 -414.25534994 176.32439437 -401.6641655 163.69245148 C-400.74458054 162.76819366 -399.82499557 161.84393585 -398.8775444 160.89167023 C-393.7990795 155.82522426 -388.61037957 150.98363717 -383.1641655 146.31745148 C-381.55648177 144.86299631 -379.95176835 143.40524253 -378.3516655 141.94245148 C-373.10217695 137.21231872 -367.68047944 132.73196197 -362.1641655 128.31745148 C-361.65434128 127.908013 -361.14451706 127.49857452 -360.61924362 127.07672882 C-309.56335118 86.16014917 -252.586887 54.62226369 -191.1641655 32.31745148 C-189.96042282 31.87723663 -188.75668015 31.43702179 -187.51646042 30.9834671 C-181.17889014 28.68706778 -174.87194693 26.527511 -168.3516655 24.81745148 C-166.79791406 24.3995391 -165.24453585 23.98023694 -163.69150925 23.55963898 C-162.92822311 23.35306671 -162.16493698 23.14649445 -161.37852097 22.93366241 C-159.33883264 22.36605786 -157.31538122 21.76410151 -155.29307175 21.13776398 C-133.72071369 14.4610629 -111.47347121 9.72381082 -89.1641655 6.31745148 C-87.52061081 6.06052521 -87.52061081 6.06052521 -85.843853 5.79840851 C-82.26552423 5.24554871 -78.68446425 4.71551437 -75.1016655 4.19245148 C-74.05873337 4.03365509 -73.01580124 3.8748587 -71.94126511 3.71125031 C-48.13028085 0.3748693 -24.00439795 -0.06251481 0 0 Z " fill="#EC1B24" transform="translate(748.1641654968262,172.68254852294922)"/>
</svg>
